<mxfile host="app.diagrams.net" modified="2022-06-18T13:28:48.668Z" agent="5.0 (Macintosh; Intel Mac OS X 10_15_7) AppleWebKit/537.36 (KHTML, like Gecko) Chrome/102.0.0.0 Safari/537.36" etag="yarUUvXZYtYeLl_h66Mn" version="20.0.1" type="github">
  <diagram id="CCXWwhQsuy4QNo9JojK2" name="Page-1">
    <mxGraphModel dx="1426" dy="794" grid="1" gridSize="10" guides="1" tooltips="1" connect="1" arrows="1" fold="1" page="1" pageScale="1" pageWidth="850" pageHeight="1100" math="0" shadow="0">
      <root>
        <mxCell id="0" />
        <mxCell id="1" parent="0" />
        <mxCell id="VUuPEQJXXJLAXDP8XpqF-4" value="" style="edgeStyle=orthogonalEdgeStyle;rounded=0;orthogonalLoop=1;jettySize=auto;html=1;fontSize=20;strokeWidth=2;" edge="1" parent="1" source="VUuPEQJXXJLAXDP8XpqF-1" target="VUuPEQJXXJLAXDP8XpqF-2">
          <mxGeometry relative="1" as="geometry" />
        </mxCell>
        <mxCell id="VUuPEQJXXJLAXDP8XpqF-1" value="&lt;font style=&quot;font-size: 20px;&quot;&gt;Solidity&lt;/font&gt;" style="rounded=1;whiteSpace=wrap;html=1;fillColor=#f5f5f5;fontColor=#333333;strokeColor=#666666;" vertex="1" parent="1">
          <mxGeometry x="100" y="400" width="120" height="60" as="geometry" />
        </mxCell>
        <mxCell id="VUuPEQJXXJLAXDP8XpqF-2" value="&lt;font style=&quot;font-size: 20px;&quot;&gt;Zinc &amp;amp; Cairo&lt;/font&gt;" style="rounded=1;whiteSpace=wrap;html=1;fillColor=#fff2cc;strokeColor=#d6b656;" vertex="1" parent="1">
          <mxGeometry x="330" y="400" width="140" height="60" as="geometry" />
        </mxCell>
        <mxCell id="VUuPEQJXXJLAXDP8XpqF-3" value="&lt;font style=&quot;font-size: 20px;&quot;&gt;zkVM&lt;/font&gt;" style="rounded=1;whiteSpace=wrap;html=1;fillColor=#f8cecc;strokeColor=#b85450;" vertex="1" parent="1">
          <mxGeometry x="590" y="400" width="140" height="60" as="geometry" />
        </mxCell>
        <mxCell id="VUuPEQJXXJLAXDP8XpqF-5" value="" style="edgeStyle=orthogonalEdgeStyle;rounded=0;orthogonalLoop=1;jettySize=auto;html=1;fontSize=20;exitX=1;exitY=0.5;exitDx=0;exitDy=0;entryX=0;entryY=0.5;entryDx=0;entryDy=0;strokeWidth=2;" edge="1" parent="1" source="VUuPEQJXXJLAXDP8XpqF-2" target="VUuPEQJXXJLAXDP8XpqF-3">
          <mxGeometry relative="1" as="geometry">
            <mxPoint x="480" y="490" as="sourcePoint" />
            <mxPoint x="570" y="430" as="targetPoint" />
          </mxGeometry>
        </mxCell>
        <mxCell id="VUuPEQJXXJLAXDP8XpqF-10" value="" style="edgeStyle=orthogonalEdgeStyle;rounded=0;orthogonalLoop=1;jettySize=auto;html=1;fontSize=16;strokeWidth=2;" edge="1" parent="1" source="VUuPEQJXXJLAXDP8XpqF-7" target="VUuPEQJXXJLAXDP8XpqF-9">
          <mxGeometry relative="1" as="geometry" />
        </mxCell>
        <mxCell id="VUuPEQJXXJLAXDP8XpqF-7" value="&lt;font style=&quot;font-size: 16px;&quot;&gt;Solidity&lt;/font&gt;" style="rounded=0;whiteSpace=wrap;html=1;fontSize=20;fillColor=#cce5ff;strokeColor=#36393d;" vertex="1" parent="1">
          <mxGeometry x="175" y="550" width="80" height="30" as="geometry" />
        </mxCell>
        <mxCell id="VUuPEQJXXJLAXDP8XpqF-8" value="&lt;font style=&quot;font-size: 16px;&quot;&gt;Cairo assembly&lt;/font&gt;" style="rounded=0;whiteSpace=wrap;html=1;fontSize=20;" vertex="1" parent="1">
          <mxGeometry x="150" y="620" width="130" height="30" as="geometry" />
        </mxCell>
        <mxCell id="VUuPEQJXXJLAXDP8XpqF-9" value="&lt;span style=&quot;font-size: 16px;&quot;&gt;Cairo zkVM&lt;/span&gt;" style="rounded=0;whiteSpace=wrap;html=1;fontSize=20;" vertex="1" parent="1">
          <mxGeometry x="150" y="690" width="130" height="30" as="geometry" />
        </mxCell>
        <mxCell id="VUuPEQJXXJLAXDP8XpqF-19" value="" style="edgeStyle=orthogonalEdgeStyle;rounded=0;orthogonalLoop=1;jettySize=auto;html=1;fontSize=16;strokeWidth=2;" edge="1" parent="1" source="VUuPEQJXXJLAXDP8XpqF-12" target="VUuPEQJXXJLAXDP8XpqF-14">
          <mxGeometry relative="1" as="geometry" />
        </mxCell>
        <mxCell id="VUuPEQJXXJLAXDP8XpqF-12" value="&lt;font style=&quot;font-size: 16px;&quot;&gt;Solidity&lt;/font&gt;" style="rounded=0;whiteSpace=wrap;html=1;fontSize=20;fillColor=#cce5ff;strokeColor=#36393d;" vertex="1" parent="1">
          <mxGeometry x="400" y="520" width="80" height="30" as="geometry" />
        </mxCell>
        <mxCell id="VUuPEQJXXJLAXDP8XpqF-20" value="" style="edgeStyle=orthogonalEdgeStyle;rounded=0;orthogonalLoop=1;jettySize=auto;html=1;fontSize=16;strokeWidth=2;" edge="1" parent="1" source="VUuPEQJXXJLAXDP8XpqF-14" target="VUuPEQJXXJLAXDP8XpqF-17">
          <mxGeometry relative="1" as="geometry" />
        </mxCell>
        <mxCell id="VUuPEQJXXJLAXDP8XpqF-14" value="&lt;font style=&quot;font-size: 16px;&quot;&gt;Yul&lt;/font&gt;" style="rounded=0;whiteSpace=wrap;html=1;fontSize=20;fillColor=default;strokeColor=#36393d;" vertex="1" parent="1">
          <mxGeometry x="400" y="580" width="80" height="30" as="geometry" />
        </mxCell>
        <mxCell id="VUuPEQJXXJLAXDP8XpqF-21" value="" style="edgeStyle=orthogonalEdgeStyle;rounded=0;orthogonalLoop=1;jettySize=auto;html=1;fontSize=16;strokeWidth=2;" edge="1" parent="1" source="VUuPEQJXXJLAXDP8XpqF-15" target="VUuPEQJXXJLAXDP8XpqF-17">
          <mxGeometry relative="1" as="geometry" />
        </mxCell>
        <mxCell id="VUuPEQJXXJLAXDP8XpqF-15" value="&lt;font style=&quot;font-size: 16px;&quot;&gt;Zinc&lt;/font&gt;" style="rounded=0;whiteSpace=wrap;html=1;fontSize=20;fillColor=default;strokeColor=#36393d;" vertex="1" parent="1">
          <mxGeometry x="500" y="580" width="80" height="30" as="geometry" />
        </mxCell>
        <mxCell id="VUuPEQJXXJLAXDP8XpqF-23" value="" style="edgeStyle=orthogonalEdgeStyle;rounded=0;orthogonalLoop=1;jettySize=auto;html=1;fontSize=16;strokeWidth=2;" edge="1" parent="1" source="VUuPEQJXXJLAXDP8XpqF-16" target="VUuPEQJXXJLAXDP8XpqF-17">
          <mxGeometry relative="1" as="geometry" />
        </mxCell>
        <mxCell id="VUuPEQJXXJLAXDP8XpqF-16" value="&lt;span style=&quot;font-size: 16px;&quot;&gt;Vyper&lt;/span&gt;" style="rounded=0;whiteSpace=wrap;html=1;fontSize=20;fillColor=default;strokeColor=#36393d;" vertex="1" parent="1">
          <mxGeometry x="600" y="580" width="80" height="30" as="geometry" />
        </mxCell>
        <mxCell id="VUuPEQJXXJLAXDP8XpqF-24" value="" style="edgeStyle=orthogonalEdgeStyle;rounded=0;orthogonalLoop=1;jettySize=auto;html=1;fontSize=16;strokeWidth=2;" edge="1" parent="1" source="VUuPEQJXXJLAXDP8XpqF-17" target="VUuPEQJXXJLAXDP8XpqF-18">
          <mxGeometry relative="1" as="geometry" />
        </mxCell>
        <mxCell id="VUuPEQJXXJLAXDP8XpqF-17" value="&lt;span style=&quot;font-size: 16px;&quot;&gt;Zinc instruction&lt;/span&gt;" style="rounded=0;whiteSpace=wrap;html=1;fontSize=20;" vertex="1" parent="1">
          <mxGeometry x="475" y="700" width="130" height="30" as="geometry" />
        </mxCell>
        <mxCell id="VUuPEQJXXJLAXDP8XpqF-18" value="&lt;span style=&quot;font-size: 16px;&quot;&gt;Zinc zkVM&lt;/span&gt;" style="rounded=0;whiteSpace=wrap;html=1;fontSize=20;" vertex="1" parent="1">
          <mxGeometry x="475" y="760" width="130" height="30" as="geometry" />
        </mxCell>
        <mxCell id="VUuPEQJXXJLAXDP8XpqF-11" value="&lt;span style=&quot;font-size: 16px;&quot;&gt;LLVM&lt;/span&gt;" style="rounded=0;whiteSpace=wrap;html=1;fontSize=20;" vertex="1" parent="1">
          <mxGeometry x="400" y="640" width="280" height="30" as="geometry" />
        </mxCell>
        <mxCell id="VUuPEQJXXJLAXDP8XpqF-25" value="" style="shape=image;verticalLabelPosition=bottom;labelBackgroundColor=default;verticalAlign=top;aspect=fixed;imageAspect=0;image=data:image/png,iVBORw0KGgoAAAANSUhEUgAAAaIAAAB4CAMAAACHBwagAAAA1VBMVEX///8ZGRmMjfxOUpoAAACFhvzz8/MXFxeamprHx8fg4P4UFBQODg6dn8NGSpeUlJQ9QpPs7OxVVVUyMjL5+fmjo6MJCQmGh/xKTpjAwMCCg/zNzc3U1NSpqalOTk6xsbGDg4Pd3d3a2v5jY2Nra2s/Pz84PZF3d3ckJCTl5u+jpPxGRkZWWp7U1eS2t/2ur/1wcHDk5P7BwtmSk/wuLi6Zmvzu7vXr6/6Ulr7Bwv18ffwyN4/MzeC1tv3Oz/54eq/c3Om0ttFucapjZ6XJyv6KjLlfYqMtd3zBAAAKuUlEQVR4nO2cbXvaOBZAIREYajfExJiQQLALCbR02jCTaZqd2Znpdrf//yctNta7ZCRbpuF57vmUGNsIH0u6upLdagEAAAAAAAAAAAAAAAAAAAAAAAAAAAAAAAAAAAAAUJXoiEcBVXh5V+mwr784Lgeg4+Vfbyod9/YPcHQcXm46FRVdPICjY/Byc1ZZ0fklOGqenaEaisBR82SG6igCR02TG6qlCBw1y6fcUD1F503FDOloljO6NT0ivJ3PZvPJNGymQD+DT50zB4qactRHBQOj3aeJjwirSSNFOjrYUF1FDTnqo3aOkaLbe4T8NsaLUTxqokxHhhiqragZRxaKogUK2jweahs3kK8Vaqi+okYcmStKfdSW8dHMfaGOCWPIgaLzyz8dl89C0ZRp4jhO2xFryIWi8wfnjkwVhTpDu0NPuK3jDDlR5L4emSq6ot2QF+yiucBj2rqTnTD5N2fIjSLnjgwV9RAVgoZJktwxsR1auS3T0RAMOVLkuq0zUxQhXGni9rzYNlkTbeg0h7GfBUNnnW2l84iKHDsyUzTDNtAds3VItpqNe18ZkqGz8cs7kTcCqnlZSZFbR2aKhkVP5F9xm+/x5rXDEh0L2dDOUaecm7GqnsmKzh9+dVdQM0W4nROCtzA/OIseuu5KdCRUhg5x81l5KoUil46MFIXFTl4sfJCgnZ/7XuqsOEejkqG/1OdSKXLoyEhRipTtXDaeXcybDRWibreJGvp5bC1o/Nuz5mRKReaOsp+oIf9cqUjcCyvy2tLppSOkEpBPIuaf/Lhwtlx73no40Ix9w/nqKsuox+vFzO2NUMGQppHLUCsydjRBWvJfrVKU0H38fKeUhG66Jq1HjpgLn6Tkk+nOEP67txPwuLv4vuf5u7bySTGtMV3kn2d3hh8jdOcwh1GlDmkauQyNIlNHE1XukxnMKBQNyCHBel8punhLvNB9T1wMZP0n4YNVcWwwZE6ERtm9Q8vio0Q4rLtEMVfcAC1ctXj2hsa/6xq5jL+v1YrOH76ZFMde0YgaauPm5QlnErSJBJJ+QHyFiMj2fotRNJsgmkFSnHiqSKsjbR2244O1oZtPJad7/1FTiUwdWSua01RPTDqAhCYS2ur4jeQfgg23fcRFGlhRvJKKxbWQfWXS1neSsLU3NC5bR/ztUleHTB3ZKqL7+0xaJ6VnySbGN6vZVEyd0mo0ZTevfdYAbTGl4njM2OpWqGL0u+vXI2tD49+/lJzu78sSQWaOLBXdIvXlWHDXNBusoqfVnO0cSDXi+it8ei/I/+1qS7MrQYIPCjWGss7x4A8+gLWhm5eSs/1zrW/kjB0JER1zpVWKpuTiePwNq7hqWZg17NNdSJTBHokzR1kI1+IVFetUSIvmIXzQPZ34iIWd6mYD7Vu5suT324dDgkwcpb0Rw2xFHAX7YSinKCXXwuObK11tDNAV2Y9UI6bnD4m2fbvIKIr9bKwTztekRKjwTXvDAD3ehlE3HZGkuldvbsrWUOdDydd1/3OgkbPoj5izrnFlCNry0DVkDEkd80Q97RrQ9olWI9IA4jAD70QVxSSqGGJHuIYEJHzcyPFKrWl4W0OljdyfF2VxAsulhaNojZsQEgswirpt/KmH+vLB01jdkSDc93RJNSKtEdkS4l3wNwTk9oxivhMj9RWxndrekReje/OfK2JpaHxWNn301qwK2Tq6xzcs7WmIol7riXQBSLmGMVohZU0ilxLf6qRXwdNM8bLYQBSxITaOBYtwHUcmwiD4yd/5QctJ9YbO0lDnQ8m5vnw/GCdUauuGtEUn7RitRRvaKYhJHEyYeNyqBbz/PhZgBBQrIK9wxI1viK7QN+WQJO2+gnBjXcocoUUNPzv+urEy9N+SU/1aOhiSuL54b1bERzr+pLUEK2oHtA7pDGVMe0MPiZ5wO4arke/n/+IIPiBTtVgRlzLnNxJhQnwdzWsvYrFwpE9rZ/zPopGzMcRkCJguty91MIfj2nAyGPpso4cbMqEdw00WrQ94hzxhRyh87xVNhAjDJcaOOvq0dnnGp5YhmnrjHMiK/LbR7Zr2PHoojuEStkKEcpVRK/JZRbicpXW5Ku/MHHVK0toHMj41DNHBBn97yor4SKoMmmjD1zNkO5KBfLFtFDXy2IWJo9JGLjqU8ZENleWPGGhiBy25DxSKdDdwKiXIiCMyWmWnHopguuiYcgwU4fhOFfc74LCjkrk7o4xPRUMpyd9wq6xaakWevC4unKwCRe/ge8Ilp9UoxfUWx3sZP7uhax121ClLaxtlfCoZommDWFx9oFIkTihMkqddEOcF8qgxkbobHDbGj3d+4Zvp2gwUqcw6pdRRaVrbNONTwRBNKgRrMRRgFQXqiKKFgze5cuGxqU/skWqE0zhc3TNQNFXu4pISR52yuTvzjA8xdG1oiCYVmEk6DKMILWbUEZtFvcPpamnKdSBfz6UwFcR5NVBEp2mFefD1o6veSeuobIFC66ttFbIwRJIKqhkxqijrpci0EDdwpPlRIf3d2sjyUr7ljLnoxEARmYoQur4Jqpn/YdA5Kll2/+WHZZywM3RuaogkFaQJhgyiKM7aqi4NKx7pPuSq+36oPpjt2/nZP/6uMFFEBnBcTBftxmtZFtV4RFCKxpFekWXGx84Qk1RQjTT6fG8yUe69IX1ZwE5S0AlAtlHiqlHAB5AmikJ6SzGOcAZRiGSq8kbpSKvIMuNjZ4hJKvSikCNvM/pCAMXUOXYtAT6JjxZYUpjQJ1oe2a9kq5EwujFRREdbHlrhKZMnMqnkKBZXOtIoss342BkiXX326wTyTJ20AqiN43P2fl0ys6UI3S2TZHHFrIPjQz12LYqwqs5IEW1td0XeJL3Bok0GDdIyvcqoHKkVfXuwbuRsDJHFAzL7+1FSNGWqHTlL1GYnioI4WyfKnKmn+07xnjdSxCSr9itZAvpdDnMOCkcqRV++/3F5ANmgjSF7RWznRbv6VLsoR05YUMt0xUiBmaKWvMoOf1Vi/ssPIjtSKXp/mK+iIytDFRTRJ4/ZyPtW+8S4Yqoar5CQMgSGitiGlfsqJ+EcQXLk6FlXO0NVFNG+hB2rpkhz2cQ6xEQX0nIdU0WtRFVrHRtqtbaNPI58/dFu8XkFRWwUyETe0SOS15DGqgnAhXrw2bJQxK/K3x/TwCTftoGH+m0Nte70D68UigoG6oPYWC1d8jPiu658oVjBSx91kdJN5OEVrurhjdxUeHeFmFcOZUt/FAPv2mydvxrj+qNVK7dj1tMxyH9yOij+Y0OlcEB24kOy7mwYUH2bnvLBLLycks/95ET4xNxqOPxlwmu5wtGGPue0augVKVvHL5ixrkNNEPbno95oNpEW3uPPtRk9e6LpvDfozSYNPky7vXGp6FUYOggO2gM5jniVbB2+7Oz64ym8a4cu7W5mZts9W2evDDwNQ8IzXyfB1tGLN0/EEMnxNbX2oAmenby+9lQM4fxa8czXiVA4qqXo+sdpGKLLuJtaHdIMe0d1FJ2Mob429/PKyR3VUHTx/VR+8J029/PayRxVV3Q6hkpyP6+e53F1RRffHRemOZb63M/r53lcVdHl6RgK2ff9nB7PN9UUff3huCANkk4wP7sk1dhWU/TtVPohAAAAAAAAAAAAAAAAAAAAAAAAAAAAAAAAAAAAAAAAoJT/AyBv4WsLwKDnAAAAAElFTkSuQmCC;" vertex="1" parent="1">
          <mxGeometry x="540.67" y="515" width="139.33" height="40" as="geometry" />
        </mxCell>
        <mxCell id="VUuPEQJXXJLAXDP8XpqF-29" value="" style="shape=image;verticalLabelPosition=bottom;labelBackgroundColor=default;verticalAlign=top;aspect=fixed;imageAspect=0;image=data:image/png,iVBORw0KGgoAAAANSUhEUgAAATQAAABOCAYAAACuT+qMAAABQmlDQ1BJQ0MgUHJvZmlsZQAAKJFjYGASSCwoyGFhYGDIzSspCnJ3UoiIjFJgf8bAxiDEIMBgziCUmFxc4BgQ4ANUwgCjUcG3awyMIPqyLsis5jU/7wg1VC67Uxrw2lNgdy2mehTAlZJanAyk/wBxSnJBUQkDA2MCkK1cXlIAYrcA2SJFQEcB2TNA7HQIew2InQRhHwCrCQlyBrKvANkCyRmJKUD2EyBbJwlJPB2JDbUX7AYfdwUPlyAFE28CjiUVlKRWlIBo5/yCyqLM9IwSBUdgCKUqeOYl6+koGBkYGTEwgMIbovqzGDgcGcVOIcQqrzMwWAQCGTEIsZCbDAy7AhgYuGcjxDTUGBh4geF23LQgsSgR7gDGbyzFacZGEDZPEQMD64///z/LMjCw72Jg+Fv0///vuf///13CwMAMNPNAIQBIeV8FY4fR1wAAAIplWElmTU0AKgAAAAgABAEaAAUAAAABAAAAPgEbAAUAAAABAAAARgEoAAMAAAABAAIAAIdpAAQAAAABAAAATgAAAAAAAACQAAAAAQAAAJAAAAABAAOShgAHAAAAEgAAAHigAgAEAAAAAQAAATSgAwAEAAAAAQAAAE4AAAAAQVNDSUkAAABTY3JlZW5zaG90+DO7NAAAAAlwSFlzAAAWJQAAFiUBSVIk8AAAAdVpVFh0WE1MOmNvbS5hZG9iZS54bXAAAAAAADx4OnhtcG1ldGEgeG1sbnM6eD0iYWRvYmU6bnM6bWV0YS8iIHg6eG1wdGs9IlhNUCBDb3JlIDYuMC4wIj4KICAgPHJkZjpSREYgeG1sbnM6cmRmPSJodHRwOi8vd3d3LnczLm9yZy8xOTk5LzAyLzIyLXJkZi1zeW50YXgtbnMjIj4KICAgICAgPHJkZjpEZXNjcmlwdGlvbiByZGY6YWJvdXQ9IiIKICAgICAgICAgICAgeG1sbnM6ZXhpZj0iaHR0cDovL25zLmFkb2JlLmNvbS9leGlmLzEuMC8iPgogICAgICAgICA8ZXhpZjpQaXhlbFlEaW1lbnNpb24+Nzg8L2V4aWY6UGl4ZWxZRGltZW5zaW9uPgogICAgICAgICA8ZXhpZjpQaXhlbFhEaW1lbnNpb24+MzA4PC9leGlmOlBpeGVsWERpbWVuc2lvbj4KICAgICAgICAgPGV4aWY6VXNlckNvbW1lbnQ+U2NyZWVuc2hvdDwvZXhpZjpVc2VyQ29tbWVudD4KICAgICAgPC9yZGY6RGVzY3JpcHRpb24+CiAgIDwvcmRmOlJERj4KPC94OnhtcG1ldGE+ChXlGuwAAAAcaURPVAAAAAIAAAAAAAAAJwAAACgAAAAnAAAAJwAAFrRw2SeYAAAWgElEQVR4AexdCXhN1xZekYEQCRFDkESQGFI1lEaICqlQKY1WRKJVKVWleNW+p96r13rUK56HftRQQ2uuVhJVapZ6agxibBCzJGImEiTo+9e+vck995xzb3KlaOzzfdwz7LOHtdf617DXPrH7DQfJQ1JAUkBSoARQwE4CWgmYRTkESQFJAUEBCWiSESQFJAVKDAUkoJWYqZQDkRSQFJCAJnlAUkBSoMRQQAJaiZlKORBJAUkBCWiSByQFJAVKDAUkoJWYqZQDkRSQFJCAJnlAUkBSoMRQQAJaiZlKORBJAUkBCWiSByQFJAVKDAUkoJWYqZQDkRSQFJCAJnlAUkBSoMRQQAJaiZlKORBJAUmBJw7Q7t+/TwcOHKOvv95AmZnXKDq6DYWFBZGzcxk5W5ICkgKSAhYp8MQB2uHDx2nSpBWUlJRGubkPqGZNF+rfP4TCw4MBas4WByMfSgpICjzdFHhiAO3evXuUnPwrffrpUjp16haZfqXN3d2JYmODKTIylFxdXZ7uGZOjlxSQFNClwBMBaHfv3qWtW5NpwoQEOns2R7OzHh5O9OabrSkqqgO5uJTTLCNvSgpICjzdFHjsgJabm0ubNyfRjBnr6ejRqxZno1IlJ+rZswW98cZLsNTKWywrH0oKSAo8fRR4rID24MED2rJlD02evIpSU68RLq0e5co5wFJ7Hv86U/nyEtSsEkwWkBR4iijw2ACN/5TB3r2H6B//WKzrZurNQ/nyDvTWW62pV6+O0v3UI5K8LynwFFLgsQAau5k7dx6ksWO/pzNntGNm1ubCw6O0iKn16BEKS00uFFijl3wuKfA0UOCRAxovAPz88x6aOnUNnThxQ7GaWVSCc0ytT5/Wv69+SvezqPST5SUFShoFHimg5ebmAcySaPr0dXTs2NVCxcysEbxCBUcsFDwnYmpubm7WisvnkgKSAiWYAo8U0PbvP4qY2QI6fTqrWMDMOC/u7mVoxIhwJN++YLwlfyUFJAWeQgo8UkCbPn0ZXM1fHsrNNJ8jOzui6tVd6KOPXqbQ0CDzx4/smldseaGjKH+32Q6dL1WqFPEvH1zHgwf8d5+L528/29vb59ctGjD7j/vKW820Du4X/yvKYeh/IZaqTSrlsRvpYHJb95T7q0Vja2PlCi31j/vAdajL8f2CORIFrPzH/TPyA5Ft75vOS2HmwnxshXlHaxjm9WiVKbjH/GuYPyMPFzxTnxn4jfnDdv52cHBQV2xy55EBGg9m7Ni5tGjRAZPmH+6UcaBmzXL09tttqXPnNlS2bNmHq9CGt5nxLly4hMWNDPzepJyc3ELX4uzsSEFBDQHIVQSwpKScokOHzlJenjbIFLpiFGSGDgtrSh4e7pqv8XycOHEGizOpKoBgJvXz86QmTeqRo6NlBjJWzvXt3n2Qjh+/qKrPWEbrt2xZR6pa1Y28vatStWqV0Z6jVjFxLzs7ByGLZLp6NVtRhvsbFORPvr7eivumF7wTZffuw3Ty5CVV/1gYvb0rUMuWjQW4HjyYSikpaZiTB+iPPejgC3r4FBrgz5+/QNu3/0p3794jBwd7atfuGYyximl3dM+ZjseOnaI9e04JUOS+NWrkQwEBtfMB1/xl5sH9+4+hz+n579Sq5UHNmzeg0qVLmxfXvWYw++WXg+DlSyhjHXQcHEpRpUrlwL+VyMurmtXc0AsXMjF/h23mb6ZFr14v6vafH/yhgMaTw/+Mmj4ubiONGrUSA7JOLIu95o4DzHx8XGjQoI5gmBZCU1y9eh2TkU4VKrhQrVref/iG9rw8jgnuph9+2ANBzqTLl3PAxIW3UHhRY/ToaAoObkp37twF2K+h2bO3UHb2wwOao6MdzZvXn559toEmKXlx5osvvkObeyAEyvlggHjhhdoID0QVWhBZGMaMmU3x8UcABJpNat4sXZqFwplq165MbdrUoy5d2iAVR3vVOiPjAg0ZMkuVgO3gYIctc+F4N1TTImUe3LfvEPq3HCB+HTyp7ErlyqXpvffC8H5bAQhLl65Honci3bqVB0CwRyJ3S+wn7kJlylj/QAK39e23P9HEiRsEL9jb29HIkWEUEdExXw6UrSuv7ty5g7bj6JtvdoOOv4EWDvSXv3SiV18NAThqK5dLl67QuHHf0saNx8U7LBtNm1YDTd6AHNRQNmDhioHxo4/m0Lp1v6pAX+s1HpubmxMUkSv4zItee60VgL+27jh37NhN77+/1Gb+5nneu3eSVlfy7/1hgMbESU4+DEE/S61aNYUGrIHrFPrww68pPf12fgdsOWFPqF49d+rduzV5erpj72cGNNRZkZx79WoOgMyBOnUKACN2hNZwtaUJq++wAK9atYmmTNmEr4LkCEay+pJZAQa0sWNjIMgMaHdowYI1NGtW8QHa/Pn9qXHjhmatGi6PHTsBQVtKBw9e1HzOHwX4+ONu6NtzmiBh/hLTY9SorygurmiAZqyHQZSFo2vXhvTOO92glNQLPOnpF6DAZmoC2ujR4Xj3Rc2+njuXBnCeB2G4rAJvFxd7iol5HnmN4cLCYEDasSMZY4lDfuRNoTjbt/cDLRjcKxu7q/vL8zhixJe0du2Z/DIhITXwwYWhhbKWMjMvoq8LYeGdEcBbu7Yb/fOf3alFi0aaYzP2d/ToeMSmb+S36erqAEDrBjkIzr9n7YRl9m9/m01r1hzJB30GR/6ndWDK8w8np1LUoEFlvN8VFm2AZl+3b98FhbQEgGZ40VLd+RWbnDCA7t8/2eSO+vQPATQmcnLyIaD9IgFewcE16LPP3obQ5tHf/z6Xdu3KUPekCHd4sho0qAANmov6c+jatTy8raS6q6sjNrQHwUTt9Ick354+fQaTMwcgWsBERRiCKPq4AO3evfuwpDZDyNbS9evaLjIzaJ8+BsukMK78wwKakXbOzvY0bFg77Nl9SWWR2AJoWVlZ2CO8mJYvPwwhVfIIC0hIiC+EMBIuU3VjFxA6uAgQWQj3ywAqdeu6AeCiIaj1NQU1/0WcXLp0GZbK57DWmScNB1uACxYMhlL3Mt7S/d29+wDa5vzMG7B0CN5HHchMFBR3Vc132NKeO3cNzZy5GV+nMTU97WAV+sEDGKDrqppXaA5odeq4wSgIFC6lqXzdvn0blm4avJNUuMc36PZtg0nOSikszB/gH03u7hXNqwdIFwAag1lkZANhmasK6txgl/ONN17VeWq4XeyAxkmz27cn07//HUfnzt0WSM+x1nbtvGngwK5grG20bNm+h3Y7mSDmroP5SBkw3nqrjchTK84N7Sy8P/64GUy+GpN5z7xZMBAHgpXCoyqEG9y/f/0rmlq3biJczsWL19KcOdoWWl4eLzqoa9Fri13OOXPe1nQ52UX5z3++o9WrU3QtS6ZvkyZVIBC9wXTWBdESoDFIlSvnKASUx5Cbe1/QTSmAhrFxuy1betEnn0QLq950xEUFNBa85cs30ZdfJqqAm9tp2NAD1lQ3jLOhwk1iwZ40aQm+yZckLDpWoMOHd4EF2MYqOKxYsR6AtErB32XKlILVxW5jmEVA5JjdsmUbsBVwLWVl3YOLWwrpSEGwWLvqurtnz2agvW8QH8wQ/MEfcbh2LRfzSoifOmIMgzF/PqZk1D03B7TGjasK/vTz81W8wwYLz/fNm1ngoV/gHm+jtDTDF3KqVy+HsUZQ27bNFTTlCswBberU3ijXVFG3tQtj+EqvXLECGpvb//vfPpE0e/z4dUWb7P++/HJ9mO2utGTJXhCjQIMpClq4YKuBv5FWlIN3FMTEBOJDkR3g0hSP+8mgPXt2ArTiDlWAk2NCHH+qW7em1YA6u8bt2jWB4HoSB605GL137wnUqRwjMxArAnNXncHs2WerUmBgPXJyUgbTWVtGRLSkKlU8FOTiupKSDgMwlor0GcVDswu2cjkdpmvXEIuCyK/pARors1atvJBS0wwul5MQuqysO7BsM2jTpiMQBPVOkRo1XOAOq93dogAaC+f27fsBTD8iWH5FpQxq1nRG+KMLtW8fqLIEmUaJidvx/HthfTDv9ujRGPGfKACz/sITW0uffDILMdVU0MvgqrFbxnMRGdkI9fXE+/pfirlx4ybALA5znQx++A2A5Ay38RXwSEtd+q9atQVhi5UCxFg+YmObwd1NwdzeAvgSFsya07vv9rS42GKc9sICmrE8/2Zl3YIcrKCFC5OEbLLyGjAgBOGgjioX2xzQpk3rDQv5OdPqHvq82ACNBTIxMQnacK1u0qyLiyPVr18BxL4Jk/xukTrPZruXlwsEnr/IoWGqWKiNNSybzjExYVSxYgULJQv3iBl3+vTlCLonqQDN398VgD4QwO2h0lDmtbMJbfzHz4yaz7wcg0WfPmMR2FZ+jYQZuGfPprB8IzQFxZiGYFofz9OsWfH01VfbNBYwmK6QxN8PFsqwsNr0+ecDVMxpLGP81QM0Axg0oaFDuyvA4NatbMRqtiJ4vh5CYXBZjHVVqOCEQHgYdesWohDEogDauXPpEPSltG0brxor+cXV1Z4GD25P3bt30B1XWlo6gGAagPeW6Fbz5lUReO8H109/tfLUqTMAvbng/+sYqz14zQnx1btCQTVp4inipbxYpXecPHkOgLgQPH5BAPAzz1QBwPWFy1dN8xVWrB9/PBNW0glhSfr7l6fx42Ph3m6khASOZf4GxVoe/DgASrOmZh2mN20BNObZrVt3wy2OoytXbgsgf/31QIRjmCeV4P+nATTDoJJAzB8QoL8J4pqSSXnOrhBoIDSQ8on+VaVKpalv39aIy53ECsxp/YIWnri5OSKe9jw0x8N/eshgocVDM+1UAVpAgBvM/OGaAGOhexYfMVj07j36dzAvKMqAFh3dDIHyVwsdJ7x8+SqEeSqCq1cKKsKZm5uDcHEuXcpVzF/Fio5wXftDEfkryptfWAK0qCgGtEhVH7Ozs6FoxsGCUsYh+eMD777bDmMLE1adsa3CAhornPHjv4Glc8QsrkSwZO1Qb1PQoAfSfPS/gMwr2OPGzaXFiw+jeTsRHvjii1isHjY0dkfxy+Nfv34rLMuVIrbr41Me1p8vwCZVLBpVrVoO4NMF1lagpqJjGdqyZS/CGN8hhmdYNIuKCoCr21vX3Tx/Pg0KbTLSWHJFiCM2timApBcUxXaA5wq42XmwPnmVtRPAu6OulWcciC2Axu8ePZqKuOd8yL5hHnmR5f33u/05AY01/p49h8SK2fnzRVu9ZJOY83zYxWJtonVUrMib0AORNNsM7s8S5GllahUr1D0WzthY/khkGDa065v+1ipj5l23jpn3B6zYKF1nNrkHDQpGvCRUuLhsgT3sUVyAxkKzbt0WxDgSkC9XoHXYdW3b1pcqVy5DK1YcRTyvwGLi7sfEBCBwHquwlszHZAugcX/ee28CLPs0hUvIqQoDBzKgKS2owgAa82NCwnqA0TqMUclTLNwhIbXpr3/trlgEMB+L8XrDhi1Y2IoXtGIaDR8eCqX4siYwsJKbMmUZXK894OUHSMXxhbsXAmBdjVBCplAW/fq1pX79OgNUnYxN5P8ymCxY8BMssg0ChBl4x459BfmV7fLLmJ4wvWfOXAKPyJDewfHYGTP6I1/ND1blacTVFsEAuCgsptDQOoiF9rEacrEV0NgyHTZsHoDtmujinxbQWBOyVvnvf1diVUaZ7GhKfL1zDloGBnqBARyxgHAVmuymAAiOkzEQsOvBQdEePTrA3TqCeEICtFfR2zFtnye+ODa0p6dnAGDnIRirBlj+ZHjnzs8ghtWK/P19VTEa0/4U5ry4AC0nJwd9ng5L4qyiWf7G3MCBIcghqgZBiAONlXEtH5+yNG3aOwgu11K8Z3phK6ANGjQBq2VKQGMLbdCg9rA+OiiE3xqghYe3EwtSY8bwgpSSTxiYAwI8IHhdRAqEljtuOh4+v3btOr3++nhYHoa6goM94b4NU/TJ+E5GRqYAkW3bzgD4OZjfEl7FSwCc5TR/fjKsMqIXX/QD/bXTPzgPccSIGVA4JwW4e3s7IzQwSHdllF3iIUOm06+/GlJLQkN9EcB/CzLjChnKxnwlwLo0xLV8fFyhfLsh+bipJhgbx2AroB04cIQ++GCRWBjgeCHn7Q0e3FWV6P5Eu5wMZvzVjOnTNyBmoA66Golk6ZddpqCgmmCaF4T2SE+/hkzuDMTYMoXl1qxZHcRwAgUDzZ//E9r6GdpSvapoqQ3zZ8zYDJSsRWJiXkScQ728bP6O1jULcGLiTiRrMsjeURVhS61Ro2pYwm8BN6MF3C3tZFHVixo3igvQdu1KRmxqAVwRJQ1r1XKFBu9Bdep4wSKZDSV1TtELB+RzjhgRJlIp9FaZbAE0XiXr23cCHT6sdDk5xPDhh52xiKRcVbQEaKNGvYRVSz8o13gRN+NVPtODY7BcJ/8FscJmz7OAc5A/Pj5FgIynZxmAzADQyde0ajz7TSxAjB7N6RZZ4K/SoGcErMFAfI15G6zb5bB6OZ7lBtCJQW5gPRWwpKdnwnuYDCDOwTNCkm8d8NZATWXItE5I2IC6Vgtrji3aoUM7QPGHCiuan2/atAOpUj/CSMhGXqY9lHgQaB2uAhnTgdgCaNzWqlU/o6+rEQvNhZtpUEYxMUplxO2YA9pnnzHIarvwpv3ic96xwjmlesnFxvI2LQrwBCYm7oJ5vFpkXmNMNh+8Khgc7IMJiQCj+CBQfRcrS3cwqaVAHGcxQawpJ078HqtHh4oUe7PUKU7iNHyloxMY0LaFAu5rQkIitPBG5B+pFzlYW7FwduxYH+AZKgKzeoBgqa/MNA8bQ2OXaOLEhXCJ9ivcO243PLwu4jtvihjX0qU/wl3brKJz27a1wLRvYjzaW6m4j1qJtezmacXQOEYVH78OOWIbYVEUoA8Ls5+fO4AkUhWvsgRow4a1xipwNhJ7D0DpFdTH4ytblsMAbTDfnYr8l8Pi4jbA9Vsl3E4GdgZOzvo3DSUwH/Dugi+/3CzSLRo2dEdaTCzxAkBaWgbczCkAutsIczhAYbxMr7zSVhVHW716M6yolfmrqpMnRyIG15q7rzpYEYwc+TUs7VTxzN+/IryXngqg5F0VI0bMR85nmgDIFi1qgKbR2B7mparPeMMWQDt/PgNz+D0A9IQIG7FyHDnytfxtZMa6+dcU0Pia59nNzfruCy7LW7n69esEGarBl7qHTYC2b98BTMxiaJOixcz0esHxCTbnOfnW3V0tMKy9Pv10CVZTTulVYdN9DoTzl29jYjraHMRnZo6P3yS2yly8qLbUuGM8vueeqwK3LpyaNQuwqmXMB1McgHb69FkR50hJUa6UspDy1pzIyHDRbGrqSSy7zwA4KAHa07McBCICOwdaKITZ2Fc9QLNHnDQsrC7AhP8MYWkBprxFbefOI6DbEbpxQwk+TCveLTB8eE/VLg99QCNo+mr4e65XUJ8ypsmA2rWrP9zBfpquorH/er+HDh1DzHEBdrzcRBE7xEZ510BfRaCexzN+/LfITTwiFlS6dasHWhW098EHExGoPyvGHh3dGDG8Xni/YI8lx/3GjJmFHLQU0Ya3d1mkBQ3BPmVPzW7t3JmM8SyH/N0UvBUR8ayIC5rvipkyZREsyp1ol3dhOECGIqlDh+dVYGpsRA1oVTCOKFiWtYxFxC8bNNxnBrPZs1cDWE/AAn0Avmb6cHpKlKZHYg5oikqtXAQEVIbV2xOLU3Utlvw/AAAA///nyc5aAAAZe0lEQVTtXQl4Tdfa/pLInCCGEmMQxJgERWO6lbiJEBVzKKpalV6u/C5aqtrS2/a2elXzUxJUTTGUmEVQampLlKRmJTRCCJLILAn/+63jnOx99snJyUla+du9n0fO2Xuv8Vtrvev9hnVYPMFFZbzGjp1LJ0/eQy6LMuYsObmVlQX17FmP5s59jWrWrCFLmJHxkMLDt9LmzacpP/+x7F15bizQ/AYNHOjjj0dThw6tzS4qLy+Pvv/+JK1ceZjOn0+lggKlSLmu+vXtaeRIH+rfvzv66EIW/NCE6/HjxzRmzDz6+ecHstQ2NpYUEtKB/vGPQeTk5Ch7J70pKiqirVsP0mef7aWHDx9JX5Grqy2tXv0/VK+eq3jOad96K5z27Ekk6cyws7Oil19+niZMGGCwLm7jBx9E0pYt5wlFyC5rawuytbXUPXv8+IkYR0Pp2rSpTbNmDaY2bVoq5HPrVgr6upQuXZLLwdLyCdWpY0/37uUrZF+tmjVNnx5AAwf2JkvL4jboGlPKl/v30+ijj9bS3r1XCF2k5s2r05IloZBbXV3Oy5ev08yZK+nChTSysbGgDz/sjzH2073ft+8wzZixBX1+Qi1aVKXIyDCqXbum7v2dO3fpjTe+pMuXM9FnosBAd5QxATKz1aXRfsnJyaUVK3Zhrh2nnJwicnGxpWnTAmjAgF5kZWWlTSY+L1++SmPHLqaMjEK8s6CgoJaQ7ViMn4MsnfaGx37GjGUUE3NejH2tWrb0/PP1qWpVe20S8ZmVlUcpKRl0/XoGpacXIK0FVatmQ926uWF8gqhx44ay9NqbH344Qf/8ZxRlZ2vWcIMGTmiLso/a9NLPpk1r0aRJQeTmZrhsbVoLcwDtyy/X0bp1p7A4CrXlVMinnZ0lgCsEguksK48XS3z8RbzbSSdOJIuJJUtg5k2VKhYYsHr09tvDMVEbm1mKJlthYSH98ssl2rDhCB08eJkyM/VW9dPSnZ2rUJ8+LQFQfuTu7mbSIisvoN279wBgtgkgdYEKC4vBlhfPkCEe9M4747EQbXT937fvKCb+Fky84j5w2g4dXGnOnBGQlZsurfaLMUDTpinpk8uuUcOGevRoQcOG+VC7dh6Kxcl5SwI0HsehQ1sBUO5TQsJdzA95H9u0qYF2DzcIkiW1Sfs8P/8RrVmzlxYvPki5uUVUvbotAG4Q9erVRQe4+/f/BBluxJgXYmOwo2++mYLNq562CLp9+w6NH78QAJCNBWxF//3vSOrevZPu/bFjJwEEa+nRoyfk4GBFU6b40qhRfQ3OjcTEJIDdBvrxxyQBOu3bP4f7kZhLTXTlab/wRjtz5mKKjb0h0jZs6EBffDGeWrVy1yaRfeoDmuxlCTe8RzRtWo0GD+5EAQEvYGOpXUJKIimg8ZjPnOlPHTsabot+IXZ2dpBtHYMgL01rFqClpaVj0GJo/fqTFQpqdnYW9OWXIRjsLtI2iu8s7ISES7RwYTTFxaXKJq0isQkPeCA8PesC9ftSp05tyNra2oRcxpMw2b1zJ5Wiow/Tpk1x+J4rJpJ+LmYrvr7NMYn7E+84pTG18gAat+nEiV8w6b+lq1czZE2pXr0K2OlQLM6usuc3b96mqVMj6OxZORNycbEBewuifv26KQCnvIDWrJkz/etf/QFqnQ0uZG6gMUCbPbsP2dk5YtOLpeTkbFl/mJ288EJ9gM6IEtmDLIPkhuV35MjPNG/eZlEus+Lx47vSxImDxJzh959++g1A7wyY6RMwpWbQMibKNoi8vHx6771I2rnzCvpGYOltwYReFTLk/AsWrKFly+JErY0aOQEwX8bm0UrSCs1XlvG+fT9hLKPp/v18zJsn2Bg7AABHoO92ivRcdmzs9/Tuu9spK6tIsLQ33+wKNjjMoIz1AY2ZNTNc3jCkFwM7s0Pt5li3rgMFB3tCLi+Rvb2czUnz6QPaokVj6G9/6yhNUu7vZgEa18q7/sqVu2njxtMQVsUwNVZ/1qyZKuh8QUEBFmAiqO09qlXLBROxATk6OtJvvyXT+++vAqjxTmx+/1u2rAoWMoS8vdtgwKqYX5CBnNnZOfTddycoIuIAXbv20CCo8U48enRXeu21fqJfBorRPSoPoOXn54txiog4DIYhF1jHjrVp0aIpUCmcdXXxF16A4eGboIrG6SYtP+fFGBjYHGxnnELtLB3QpIuimEFxuXzxomEm9e9/j8aOr2QbnMYYoM2dG4hNwoeWL9+O/p4QbIfzaC8uf9CgthQWNgQsq7r2sUmfSUm30OcobAy/ic3H17cZzZ4dArWxFlhZJsBtAZ0+fR+gYonnAajHX1Yuy2b9+r1gZrEAgsdgoNXA+MKEaSU9PR1AHgH2koyyiXr3dkcZIwwyndzcPMhnJW3bdlGAJ9e3dOlYaBlesvqkN1lZ2TRu3Kd07ly6eOzu7gT5TAMjdpEmE9/1Ac3DowZNnuxPjRppzBHaDAUFRSjvMrS043TxYoaY346OVgC0LvinAXptWulnpQY0buiDB2kYmK1gJAmKxSLtiKnfe/SoS1999RYWVB7sZfvBAo+B5eRhAlpDqM5gVA2hjnoCQHOwox2AipFeZqbGZobmzathgg4jL6+2pjatzOl4csTHnwWj3IXPVCwwOZjw5G3atCoY0hhq27a50fLLA2jJyXewQ38NFeW2rA6uv3ZtGzDEamIhSV9iY6fU1BxsHjli4UjfsR3w889fofbtPaSPMQ6GbWgaJlwLDKkpWEsVyKEQiyGFzpxJgW1Hbs/jNgUFNUN7xxsEeWOANm9eP7AjP7Q7Ffm/oaNHbyo2kurVbWAD7AG1tg9Uu5KZhKxjuMnOzobmsBmgdBo2useYPzXAwoYJGZw6FQ+GtIbS0gqw6Toi3QSDKnlCwhXY8r6mpKRsYWdbseJVsLD2AMKzUL3WQ9aZAhDHj+8BUAg0yLguX04EIEcK1ZXbaG9vCfOFGzYDue1M2n4eyzNnkikxMUc8Zhvf++8HClnp2xT1Ac3Tsw76GYL+NJEWqft+6dI1sMkNdOpUiiAX9eo5gq2GoF/tdGmkXyo9oHFj795NBbjsEqAmtblIO2LKd574c+cGYIB6wID9PXaRo2BnObJJyWBkbW0JBucgdsqkpCyFEdhYXUyh27evA8NkINTM9qIMY+nL+44pf3LyLQDzPtq16xwMqPIFzDtsWJgvmFo/o20pD6Dt23cc4L1ZGIbL2x/Oz2MwcSKrXMNkamdJgMbMaNgwT+z0gwWrY5kwq9m06TsY149i85IDfe3adjR/fgjGx1MhE1MAjdX38+cvgeVEwcieJmPxDJhs7wkLC4Sq87ys/cZkw23eufMg2NFumFgKwG7YEB8ItuoDA/9GbOon0VaiF190wwKfQM7OSgdNSkoq1NZ1dOjQNTGnJ07sDHAdjLl+CCrnfsikgFh1e/vtIPLz66pQCVm+X38dDcA8IpvzXG9pF7df6sDz9XVDW8YpmGpZAY3txnv2HMMGtwc4kCvW5siRnQQLNuTQ+H8BaCxMZmorVuyGh+u08HqUJmBD711crAFioaDeF2jVquMwpGbLwMxQHu0zBsPS1E9eWN7edWE/8KfOndtVuJqpbYuhz5SUu1ikm4SnjO0s2osnY0iIJ3bosUYXl7mAlpubC9vNMtq9+9dS5aNtkymfLVo4g0lPknn6jAHa8OFeYDFDZWoqG8qnTFmisNPxhsU2qtBQpepiKqBxW/bv/wELbTcYUZasSzxXvLzqAPCGkYeHaQZpLuDXX5kdrRAmBN4Yx471gde3N2yw4ehDumBdU6b44Zm/QXssq4vLl+/COtGAeOfO9cCUQjDnD4AMxAvV3tvbFZ7iEdSsmZuszXzz4MEDAOBCgLVGdXR2toL8nQSQKhLrPeC18eBBLv49EmuqTh1HYTvt0sVLtmmUFdC4muTkFMyxKKzb63wLI3990YcmTRqJe+kffUD74ouRIDBKe7k0T1m/m21D06+IbWqrV8fCy2eeo8Dbuyb5+LgjfzwMnnkmgxm3w83NAQCYK9zi+u3iezaetmtXGxMyCAKvGAeAoXpKesbAEhGxAzvscYVtZ8CA5pgA7KIv9jLql2MuoJ0/f5HefHM5dk85M9Qvv6z37BB9550AeEgDdAuirIDGu/uiRWthAzqF6otphqWlBZwUTcAqRyrsSKYCGveHwxvWrYsFiBwBOy2QdZE3t549GwLUXgYrqiN7V9IN2xVnzfoKIQ2JAkS6dWtIL73kDa1iJ9jVY3jgHABQw2ASkYOEtjyWz4EDP4HB7YAZJRteUCfYT7uAuV+AynZLyHHQoHbY3EYaNKxv374f5e8SjJZBOTi4DWxjzOy1NZT8yUAVE3MSmsJxqM+FIoRm9OgumBsDZaqtOYDGNtrw8G+FvZXVce7X7NnBkG9H3dzQtkwf0GbN8oc3N1D7ukI+KwzQuDXM1CIitgOUzpQpXowHpVYta+Ex5Vidsl4vvPAc8lcH/b0iM2Jry2nc2B66PduqWimErE1T1k8eyMTEG8KAXlre5OS7ALPDwuYn2L8kw6hRXoKh6dszJEnArsoeh8aTc+HC1VjQpxWbAxtwmzZ1wmQ27gzh8IfExEyMqxwQuG29ejXALv+6Tm0pK6BxGd99d0TEZ7GhXHq1aOGCxTscTEru6SsLoHF57HH+/PNvsZgvKeYFg0JISDtsciEG7XXS9vB37t/mzTHYfPYKtuvqaofwhxpQITmMyIK6dm0AEA7B5tpAP6vunuPC3n13PRjdXdjwqmBzrQXGlSbi52xsrPDOHw6Fvyvm6MOHmQCJZWCd10VZVatWQRjOaHiES3YG6Cp9+uXnn8+ifZvAMNMFCLK28t57HILTRJfUHEBjubA6Pm9eDMDyEVh4FbBWXxoxwk/m6eVKTp9OgKliJTYATTiQv78bHCVhiv7qGmTGlwoFNK7//v0HUEe2whNzVhbHZEbbTM7SsmVNEVy4fv0PdPjwdWG45cy8EzMzmzZtANRNw4ZKkyvRS3jjxm8AopV044Y8FEIvmbjl+CJ2c+uDGYepTJ78Ir3yygCjg2oOoN28eQuT5yuhIknbxAzIz88dQDLEoK1HmpYBLTJyK9SiU2IRS9/VrGlPn3wyBKxasxObA2hJSUn0+uuLYBDPlRYNZ4U9bEn9yd/fR2ZLKiugse0oPv48WFE0QCRVVgffcExZaGhPxFD5muQkYK/7hAlfQRvIh4nAAqqlhWBMHIYzfHgHwXj0PcbSStnj+Mkn67A2zmEuPBFMiQPFgQkiMHjFilBq0qSxNItIFxeXgHCZDbApZ4t54uPD4DmKGjaUex9lGfVuODj9ww/XYdO/iPqewMNqCydFP4TgdNeZO8wBNK4mIeE8PLVrRFgLyyUkpBPs1MEyEwOnS0tLA6v/WMiP7zlsaO7cQZhD3oKVlha+xHlKuyoc0LhCBjW2F2zZEi+MqPqN0E4Gji7mAWVvl/5i189j7J4XwJw5QRBQNagxu+Bev4WFwDYzV0yyvnBrt5UtDGNlmfru2rXrGLRlAIxMU7Mo0jVu7IwBHSHap3gpeVBWQOOJGR29H4uHwwTkITUc8T9tWm8Y6gNMsiPGxcVjx12liDfkeKxRozoilm4QwMABi8Swl5M3FUM2NO4eh+aEhn5Gx4/fkfSWUJ4VgKMnYqwCZCpRWQGNC2XVNjb2GGSxE0xIrnqzZuDuXgO2vACwnY4AKOOMlU0H06eHI3A6WTZf2UkwfXpfeGh7lTrPNm6MEeOSl1cctMzt7NOnEYA3FGxRHsXPmkBExDYw/B8BnkVY+FZQNX3o1Vf7mQTCXDZfPCe2bTsAVr1XqJ28BgcP9kS84VCE7Tjp0khPCpTm5RSZ8IdPOoSFRQhvPj/r0aMxmOxoqPPKINuwsAWIpbuuk5+bmxOcK97UsmVDADzLv2QdmserR48OXEWJ1+8CaFwbHxnh4NtNm04JGwY3RhN+URWTqC6OgDSEF+oqKPsNnbGyxFaW8oIHeeLEnjDIBqDM63AqxIpdJzi4W4UFzeo3obyAxmrfiBGdYEcJQvCis37xsvuyAtq9e/exONZjIfNxHbkK36iRI1TRVzGBTDOIs7ozder/AnRSZG3i8fTyqiuM661aNTML0LjABQtWw1AehwVXXDxvRsHB7bDrc8xYNd0LcwCNMzMQRUXFwF53RKfuaAvlhd2pkysY4VDIpKn2cYmfq1Ztg5p0UGYLbd68Jkwao5C/WYn5tC+uXLkKsI4ECBSzUg6leOut3pgPQQqmfvXqDTCrjThqeBMyJoSGVIX9Mhi2Om9FWm0dJX0mJSVjA1oKB4dGq+Cwofnzx8E5oum3uQyNN6YZMxbD6XVNVM1zLDx8ItTZRoqmHDqkCQy+dau4/+ztd3a2xoYCF7qRizfHmJiPjKQAHIL6yme80eRle5mWlgHvxxkg9xVyc3MFkDUUxxfs7KxFnNmaNafK7AAw1AKelIGBrTAphokFwIGtjPQODnY6Om0oX3melQfQqla1wlm/NmKXdXWtU+rELAug8XCyzOfN2wJ1+KGsi+wcCQhoAoYwyaAnTpb46Q3XvWHDDizYQwq7KMd1hYX5A3w05wgNneU0xtC4CjaUT5u2XlF2p04cAzUG86bYJmUuoHE9mZlZAKL10BrOysIe+B230c/PDSyfQxmKAZTf6V9XrlyHF3aRjO35+7uLMAgnJw3T0c8jveeYNl78Bw/e1D1+7jkbbMJTEGtZ3Fd+WVhYJMIi5s/fhfi6PMwTDg1pDrmMMhgYqyuwhC9FRY/pP/9ZTmvXnhUMydbWAhpMd6j9Q0QOcwGNM0dGbsCxqmMo1wIs0wpA+TLsrEo2xd7eHTsOQ4M7CBU1V7HhltB08ZjHKSHhC2NJfl9A45p5gfGiYKM368g5OTlgbfsQg6T0PhltaSkv+RjTBx8MB/MrfZctpSiTXt+8mYy4pCgMisaNXlomZh0uLvbYtWqDNrdD6Ig3KLZpB3NZfjNnhsOpILcD8Y7Wr58XdvYAnfrBKhZPmKiow1BRCmXN4vRTp/ZTnJWVJTJwc/t2CpjY11hU8iNF3Cd/f0/E0fUV9S9ZshGs8LwYb20xVapYUt++XuJsoqFgVg4W/eyzDcLzh9nyNJsFnDwOWPgjwB6aaIsCiNyDzNfgBMk93TP+wic9Jk/+Oxa7j+y5/s2VK4kwSWyFmYCPdGnr0qSysrKEKtddHCo35qBhW9T8+WuxSd96WgaHcHTH4Xc/kzZPXg9bt8bALnlcrA2u3dPTFQb6NxQmAA4wj4qKpe3bmcE+xnsr8eMGAwf6KtJqelH63wsXLsH5ECUCnHnT9/auh7k1Tqj2DGgM+kePXhSA5+HBRwMHAmjrl1pwQsI5bAgbMfZFgmmNGdMTXmBfg/l4jl69eh1OoZOY08kY1xwEy8vNAYYy8hhFR8819Er37HdlaLpann5hdOZAwsjI70XQrP778ty3aFFDAFr79spfaShPuSXl5UFhIyfTbVMuBnNbWzthKJUeBDclL6dhNfLRo3xZci7T0dEJdJ3jkbB94+IFk5WVJf7xd+llYWEJoKhpMjvT5uVyUlPvgTHo99UCNh07qMzVxIaVkZEB+wyz4+J6NW10RBuddW3UlsufGjmmQ47yCW1paSVYiFRWvODYk66fluvg40zGzhFyXZyfAYmBQtpGfscX2wJLOxbFmwv3k9VY7cV5OK+pF+fl89DaNtjbc718YkMzhtpyWO4PHz6ETDUbCY8fy9rQxqDNU9ony4DHkoGHL2trG3EESwvi3C5t31j23C5TjgbyOuByuU/cDx7v0hgry5IdJTweyrklmqf3xwIannFHyB8KaByEN2fONziGc0vsAHqtNfuWqSgf9mbPHatw6qVKQJXAX1MCfyigZWZmw1GwCwfQf1J4zcwX/xPEl3HYRjDOkLU2aTcxvy41pyoBVQKVWQJ/KKCxIJjSLl26VZwIKO+PNbKR292dQx9GIt6sNdQeOWWvzIJX26ZKQJVAxUvgDwc07oLmVzq2CI+T/uFkU7vIambr1jXFTwDxDwLq2x9MLUdNp0pAlcCfRwLPBNBYfMzUIiN3lBh8a0zEDGYcNBsaGoCg1HbwLlkaS66+UyWgSuAvIoFnBmgsXw6+XbVqL34kMk4E35oic3YEeXvXQfxMIMDsjz9obkob1TSqBFQJPBsJPFNA4y5rfvl2D2xqp0w6+9msmdNTm5mHiMt5NmJTa1UloEqgMkrgmQMaC4V/hnjJkmgEEcYrori1QmNm1rp1dQFmHh4tVJuZVjDqpyoBVQI6CVQKQOPWcJDq4sXRiIo+h2Mq+hHulvBian5ptnPn9rrGq19UCagSUCUglUClATRuFEdF8690bNyoOdDOz/icJp/6nzSJfza74v9DE65DvVQJqBL4c0igUgEaizQ19QECb/mXb+MAcAVgZjXxqwsD4QhoVeYjO3+OIVJ7oUpAlYCpEqh0gMYNT0/PwOHdnThZn4gTAEPxy6CqzczUAVXTqRL4K0ugUgLaX3lA1L6rElAlYL4EVEAzX3ZqTlUCqgQqmQRUQKtkA6I2R5WAKgHzJaACmvmyU3OqElAlUMkkoAJaJRsQtTmqBFQJmC8BFdDMl52aU5WAKoFKJgEV0CrZgKjNUSWgSsB8CaiAZr7s1JyqBFQJVDIJqIBWyQZEbY4qAVUC5ktABTTzZafmVCWgSqCSSUAFtEo2IGpzVAmoEjBfAiqgmS87NacqAVUClUwC/wdd/+BhBuykUwAAAABJRU5ErkJggg==;" vertex="1" parent="1">
          <mxGeometry x="136.03" y="750" width="157.95" height="40" as="geometry" />
        </mxCell>
      </root>
    </mxGraphModel>
  </diagram>
</mxfile>
